<?xml version="1.0" encoding="UTF-8"?>
<svg id="Camada_2" data-name="Camada 2" xmlns="http://www.w3.org/2000/svg" viewBox="0 0 401.62 90">
  <defs>
    <style>
      .cls-1 {
        fill: #ed8f07;
      }
    </style>
  </defs>
  <g id="Camada_1-2" data-name="Camada 1">
    <g>
      <path class="cls-1" d="M75.5,30.5V14.5h-16.01L45,0l-14.5,14.5H14.5v16.01L0,45l14.5,14.5v16.01h16.01l14.5,14.5,14.5-14.5h16.01v-16.01l14.5-14.5-14.5-14.5ZM45,61.88c-9.33,0-16.88-7.56-16.88-16.88s7.55-16.89,16.88-16.89,16.88,7.56,16.88,16.89-7.55,16.88-16.88,16.88Z"/>
      <g>
        <g>
          <path class="cls-1" d="M127.12,45.92h0c-2.19-1.81-4.94-2.98-8.15-3.48l-5.04-.78c-4.38-.68-6.6-2.22-6.6-4.59,0-1.45.65-2.57,1.99-3.42,1.37-.87,3.43-1.31,6.12-1.31,2.34,0,4.32.45,5.89,1.35,1.57.89,2.74,1.98,3.49,3.22l.17.29,4.94-2.47-.18-.33c-2.8-5.12-7.55-7.72-14.12-7.72-4.53,0-8.02.95-10.36,2.82-2.36,1.89-3.56,4.57-3.56,7.96,0,2.8,1.03,5.11,3.06,6.85,2,1.72,4.71,2.83,8.06,3.29l5.19.73c4.57.63,6.79,2.23,6.79,4.88,0,3.02-2.6,4.48-7.96,4.48-2.73,0-4.98-.47-6.68-1.4-1.71-.93-3.21-2.32-4.48-4.12l-.21-.29-4.46,3.12.13.28c2.56,5.33,7.79,8.03,15.54,8.03,4.33,0,7.74-.91,10.13-2.69,2.42-1.81,3.64-4.52,3.64-8.04,0-2.58-1.13-4.82-3.36-6.66Z"/>
          <path class="cls-1" d="M156.48,49.16c0,2.63-.77,4.7-2.29,6.18-1.52,1.48-3.61,2.22-6.21,2.22s-4.69-.75-6.21-2.22c-1.52-1.47-2.29-3.55-2.29-6.18v-21.75h-5.81v22.23c0,4.06,1.33,7.37,3.95,9.83,2.62,2.45,6.1,3.69,10.35,3.69s7.73-1.24,10.35-3.69c2.63-2.46,3.96-5.77,3.96-9.83v-22.23h-5.81v21.75Z"/>
          <polygon class="cls-1" points="191.37 58.2 176.64 27.46 166.47 27.46 166.47 62.44 172.27 62.44 172.27 31.95 186.76 62.23 186.86 62.44 197.18 62.44 197.18 27.46 191.37 27.46 191.37 58.2"/>
          <path class="cls-1" d="M221.8,27.46h-9.87l-11.69,34.98h6.34l2.84-8.52h14.89l2.79,8.52h6.34l-11.56-34.73-.08-.25ZM222.46,48.41h-11.24l5.62-17.08,5.62,17.08Z"/>
          <path class="cls-1" d="M264.57,38.64c0-3.26-1.21-5.97-3.6-8.05-2.37-2.07-5.22-3.12-8.46-3.12h-15.04v34.98h5.81v-12.63h5.62l8.66,12.63h6.75l-8.92-12.87c2.65-.47,4.83-1.61,6.49-3.4,1.79-1.92,2.69-4.46,2.69-7.54ZM243.28,33.17h9.23c1.8,0,3.33.51,4.54,1.51,1.21,1,1.8,2.29,1.8,3.96,0,1.86-.58,3.25-1.78,4.25-1.2,1-2.73,1.51-4.56,1.51h-9.23v-11.22Z"/>
          <polygon class="cls-1" points="283.24 45.09 273.43 27.46 266.52 27.46 278.88 48.49 280.19 48.49 280.19 62.44 286.34 62.44 286.34 48.49 287.66 48.49 299.92 27.46 293.02 27.46 283.24 45.09"/>
          <path class="cls-1" d="M325.66,49.16c0,2.63-.77,4.7-2.29,6.18-1.52,1.48-3.61,2.22-6.21,2.22s-4.69-.75-6.21-2.22c-1.52-1.47-2.29-3.55-2.29-6.18v-21.75h-5.81v22.23c0,4.06,1.33,7.37,3.95,9.83,2.62,2.45,6.1,3.69,10.35,3.69s7.73-1.24,10.35-3.69c2.63-2.46,3.96-5.77,3.96-9.83v-22.23h-5.81v21.75Z"/>
          <polygon class="cls-1" points="368.14 27.46 357.47 58.71 345.93 27.7 345.84 27.46 335.64 27.46 335.64 62.44 341.45 62.44 341.45 32.38 352.58 62.44 362.34 62.44 372.54 32.54 372.54 62.44 378.35 62.44 378.35 27.46 368.14 27.46"/>
        </g>
        <path class="cls-1" d="M383.55,29.72h-2.67v-2.26h7.51v2.26h-2.55v7.51h-2.3v-7.51ZM397.51,37.24h-3.45l-2.14-8.62v8.62h-2.26v-9.77h4.39l1.72,8.66,1.48-8.66h4.35v9.77h-2.26v-8.62l-1.85,8.62Z"/>
      </g>
    </g>
  </g>
</svg>